<svg width="319" height="179" viewBox="0 0 319 179" fill="none" xmlns="http://www.w3.org/2000/svg">
<g clip-path="url(#clip0_7_429)">
<path d="M26.9789 147.458C29.6998 151.773 33.0147 155.682 36.8256 159.072C36.9127 159.151 37.0022 159.228 37.0916 159.306L45.2283 154.468C45.1681 154.386 45.1016 154.294 45.0304 154.194C40.782 148.275 21.595 108.899 21.4777 100.18C21.463 100.901 14.5727 128.002 26.9789 147.458Z" fill="#E6E6E6"/>
<path d="M35.2558 160.006C35.3814 160.062 35.5098 160.117 35.639 160.169L41.7433 156.54C41.6481 156.485 41.5368 156.42 41.4093 156.347C39.3196 155.125 33.1018 151.455 26.9796 147.457C20.4015 143.161 13.9303 138.49 12.8074 136.074C13.0411 136.63 20.2838 153.523 35.2558 160.006Z" fill="#E6E6E6"/>
<path d="M293.13 163.331C292.993 168.432 292.139 173.487 290.593 178.349C290.559 178.462 290.521 178.573 290.484 178.686H281.019C281.029 178.585 281.04 178.472 281.05 178.349C281.681 171.09 278.075 127.431 273.725 119.875C274.106 120.488 293.864 140.264 293.13 163.331Z" fill="#E6E6E6"/>
<path d="M292.42 178.349C292.34 178.462 292.258 178.575 292.174 178.686H285.073C285.127 178.59 285.189 178.477 285.262 178.349C286.435 176.231 289.907 169.897 293.129 163.331C296.591 156.275 299.77 148.952 299.502 146.301C299.585 146.899 301.982 165.123 292.42 178.349Z" fill="#E6E6E6"/>
<path d="M153.581 178.423H44.1271C41.5328 178.42 39.0457 177.387 37.2112 175.552C35.3768 173.716 34.345 171.227 34.342 168.631V9.79167C34.345 7.19566 35.3768 4.70681 37.2112 2.87115C39.0457 1.03549 41.5328 0.00293045 44.1271 0H153.581C156.175 0.00293045 158.662 1.03549 160.496 2.87115C162.331 4.7068 163.363 7.19565 163.366 9.79166V168.631C163.363 171.227 162.331 173.716 160.496 175.552C158.662 177.387 156.175 178.42 153.581 178.423V178.423Z" fill="#CACACA"/>
<path d="M153.773 172.175H43.9343C43.1346 172.175 42.3679 171.856 41.8024 171.29C41.237 170.725 40.9189 169.957 40.918 169.157V9.26567C40.9189 8.46542 41.237 7.69822 41.8024 7.13236C42.3679 6.5665 43.1346 6.2482 43.9343 6.24728H153.773C154.573 6.2482 155.34 6.5665 155.905 7.13236C156.471 7.69822 156.789 8.46542 156.79 9.26567V169.157C156.789 169.957 156.471 170.725 155.905 171.29C155.34 171.856 154.573 172.175 153.773 172.175V172.175Z" fill="white"/>
<path d="M98.4376 3.83169C98.8974 3.83169 99.27 3.45875 99.27 2.99871C99.27 2.53868 98.8974 2.16574 98.4376 2.16574C97.9779 2.16574 97.6052 2.53868 97.6052 2.99871C97.6052 3.45875 97.9779 3.83169 98.4376 3.83169Z" fill="white"/>
<path d="M318.592 179H0.408118C0.299877 179 0.196072 178.957 0.119535 178.88C0.0429974 178.804 0 178.7 0 178.592C0 178.483 0.0429974 178.379 0.119535 178.303C0.196072 178.226 0.299877 178.183 0.408118 178.183H318.592C318.7 178.183 318.804 178.226 318.88 178.303C318.957 178.379 319 178.483 319 178.592C319 178.7 318.957 178.804 318.88 178.88C318.804 178.957 318.7 179 318.592 179Z" fill="#CACACA"/>
<path d="M98.8529 132.514C104.721 132.514 109.479 127.754 109.479 121.882C109.479 116.009 104.721 111.249 98.8529 111.249C92.9845 111.249 88.2273 116.009 88.2273 121.882C88.2273 127.754 92.9845 132.514 98.8529 132.514Z" fill="#E4E4E4"/>
<path d="M105.505 101.473H92.2006L84.1683 62.1559C83.962 60.1029 84.1878 58.0293 84.8313 56.0689C85.4748 54.1086 86.5216 52.3049 87.9044 50.7741C89.2871 49.2434 90.975 48.0195 92.8594 47.1815C94.7437 46.3435 96.7826 45.9099 98.8446 45.9087C100.907 45.9075 102.946 46.3387 104.831 47.1744C106.717 48.0102 108.406 49.232 109.791 50.7611C111.175 52.2902 112.224 54.0927 112.87 56.0523C113.516 58.0119 113.744 60.0852 113.54 62.1385L105.505 101.473Z" fill="#E4E4E4"/>
<path d="M151.13 48.6249H199.759C202.105 48.6249 204.382 49.4238 206.215 50.8903C208.048 52.3568 209.327 54.4037 209.843 56.6944L234.414 165.755C234.682 166.945 234.687 168.179 234.428 169.37C234.169 170.562 233.653 171.682 232.916 172.653C232.178 173.624 231.238 174.422 230.16 174.99C229.082 175.559 227.892 175.884 226.675 175.945L176.684 178.409C174.007 178.541 171.374 177.694 169.275 176.026C167.177 174.358 165.757 171.982 165.28 169.343L151.341 92.2361L148.705 77.6508L144.814 56.1275C144.647 55.2056 144.686 54.2582 144.927 53.353C145.168 52.4478 145.606 51.6069 146.209 50.8904C146.813 50.1739 147.566 49.5994 148.417 49.2078C149.267 48.8162 150.194 48.6172 151.13 48.6249V48.6249Z" fill="#3F3D56"/>
<path d="M193.357 50.976H199.033C200.664 50.976 202.245 51.5339 203.514 52.5571C204.784 53.5803 205.666 55.0072 206.013 56.601L229.598 164.772C229.734 165.395 229.734 166.04 229.598 166.662C229.462 167.285 229.193 167.871 228.81 168.38C228.427 168.89 227.938 169.31 227.378 169.613C226.818 169.916 226.198 170.095 225.563 170.136L175.734 173.404C174.328 173.497 172.937 173.068 171.828 172.199C170.718 171.331 169.966 170.084 169.717 168.697L149.591 56.8915C149.461 56.1678 149.491 55.4244 149.679 54.7136C149.867 54.0029 150.209 53.3421 150.681 52.778C151.152 52.2138 151.741 51.7601 152.407 51.4487C153.072 51.1374 153.798 50.976 154.533 50.976H159.918C160.439 50.976 160.946 51.1479 161.36 51.4652C161.773 51.7824 162.071 52.2273 162.206 52.7309V52.7309C162.326 53.1755 162.589 53.5682 162.954 53.8483C163.319 54.1284 163.767 54.2802 164.227 54.2802H189.791C190.692 54.2802 191.56 53.9398 192.221 53.3272C192.882 52.7146 193.288 51.8749 193.357 50.976V50.976Z" fill="white"/>
<path d="M218.506 85.6502C218.665 85.7532 218.816 85.8688 218.957 85.9956L235.429 81.7937L236.553 77.8173L242.772 78.7299L241.466 85.9629C241.36 86.5472 241.068 87.0816 240.634 87.4857C240.199 87.8898 239.645 88.1418 239.055 88.204L219.822 90.2308C219.508 90.8912 219.001 91.4405 218.368 91.8056C217.735 92.1707 217.006 92.3342 216.278 92.2745C215.55 92.2148 214.857 91.9347 214.292 91.4714C213.727 91.0081 213.316 90.3835 213.114 89.6808C212.912 88.9782 212.929 88.2306 213.162 87.5377C213.395 86.8447 213.833 86.2392 214.419 85.8016C215.004 85.3641 215.709 85.1152 216.439 85.0881C217.169 85.0611 217.89 85.2571 218.506 85.6502H218.506Z" fill="#FFB6B6"/>
<path d="M206.751 100.564C212.619 100.564 217.377 95.8034 217.377 89.9311C217.377 84.0588 212.619 79.2983 206.751 79.2983C200.883 79.2983 196.125 84.0588 196.125 89.9311C196.125 95.8034 200.883 100.564 206.751 100.564Z" fill="#D70A0A"/>
<path d="M213.404 69.523H200.099L192.067 30.2055C191.86 28.1524 192.086 26.0789 192.729 24.1185C193.373 22.1581 194.42 20.3544 195.803 18.8237C197.185 17.2929 198.873 16.0691 200.758 15.2311C202.642 14.3931 204.681 13.9595 206.743 13.9583C208.805 13.9571 210.844 14.3882 212.73 15.224C214.615 16.0598 216.304 17.2816 217.689 18.8107C219.073 20.3398 220.122 22.1423 220.768 24.1019C221.414 26.0615 221.642 28.1348 221.438 30.1881L213.404 69.523Z" fill="#D70A0A"/>
<path d="M243.883 82.3393L239.64 86.0025L233.703 91.1234L231.081 77.6986L230.807 76.3027L230.591 75.1948L236.607 64.7095L241.621 64.9976L241.964 65.0182L241.971 65.0936L242.05 65.7968L243.078 75.0507L243.102 75.2737L243.883 82.3393Z" fill="#3F3D56"/>
<path d="M216.148 174.15L211.945 174.15L209.946 157.93L216.148 157.931L216.148 174.15Z" fill="#FFB6B6"/>
<path d="M217.219 178.226L203.67 178.226V178.054C203.67 176.654 204.225 175.312 205.214 174.323C206.204 173.333 207.545 172.777 208.944 172.777H208.944L217.22 172.777L217.219 178.226Z" fill="#2F2E41"/>
<path d="M260.021 174.493L255.819 174.493L253.82 158.273L260.022 158.274L260.021 174.493Z" fill="#FFB6B6"/>
<path d="M261.093 178.569L247.543 178.569V178.397C247.543 176.997 248.099 175.655 249.088 174.666C250.077 173.676 251.418 173.12 252.817 173.12H252.817L261.093 173.12L261.093 178.569Z" fill="#2F2E41"/>
<path d="M263.38 167.35L252.068 169.065L235.613 113.336L218.135 169.408L205.453 167.693L221.905 102.525V97.3797L224.133 89.6624L223.9 87.5735L222.279 72.9655L221.576 66.6304L221.531 66.2211C221.493 65.8777 221.584 65.5323 221.786 65.2523C221.988 64.9722 222.287 64.7776 222.625 64.7062V64.7062L227.904 63.5949H236.531L241.621 64.9977L241.971 65.0938L242.128 65.1383L242.05 65.7969L240.857 75.8054L240.792 76.3542L239.64 86.0026L239.386 88.1189C249.326 95.3218 249.669 102.525 249.669 102.525L263.38 167.35Z" fill="#2F2E41"/>
<path d="M231.175 59.2555C235.824 59.2555 239.594 55.4838 239.594 50.8312C239.594 46.1786 235.824 42.4069 231.175 42.4069C226.525 42.4069 222.756 46.1786 222.756 50.8312C222.756 55.4838 226.525 59.2555 231.175 59.2555Z" fill="#FFB6B6"/>
<path d="M240.017 86.1831L223.364 88.3624L223.675 90.7431L240.328 88.5638L240.017 86.1831Z" fill="#3F3D56"/>
<path d="M201.025 89.0801C201.185 89.1832 201.335 89.2987 201.477 89.4255L217.948 85.2236L219.072 81.2472L225.291 82.1598L223.985 89.3928C223.88 89.9772 223.588 90.5115 223.153 90.9156C222.718 91.3197 222.164 91.5717 221.574 91.6339L202.341 93.6607C202.028 94.3211 201.521 94.8704 200.888 95.2355C200.255 95.6006 199.526 95.7642 198.797 95.7045C198.069 95.6448 197.376 95.3646 196.811 94.9013C196.246 94.438 195.835 93.8135 195.633 93.1108C195.431 92.4081 195.448 91.6606 195.681 90.9676C195.914 90.2747 196.353 89.6691 196.938 89.2316C197.523 88.794 198.228 88.5451 198.958 88.5181C199.688 88.491 200.409 88.687 201.025 89.0801H201.025Z" fill="#FFB6B6"/>
<path d="M226.361 66.8533L223.448 64.6239C222.66 64.3249 221.581 65.1744 221.391 65.9958L217.278 82.8025L225.847 88.9764L227.047 87.0899L226.361 66.8533Z" fill="#3F3D56"/>
<g opacity="0.2">
<path d="M243.078 75.0508C242.351 75.3397 241.609 75.5915 240.857 75.8054C240.617 75.8775 240.37 75.9461 240.127 76.0112C238.523 76.4566 236.874 76.7235 235.211 76.807C234.496 76.8372 233.779 76.8178 233.066 76.7487C232.3 76.6723 231.544 76.523 230.807 76.3028C230.783 76.2959 230.756 76.289 230.732 76.2822C229.199 75.8467 227.794 75.0478 226.636 73.9533C226.377 73.7011 226.135 73.4318 225.912 73.1472C225.272 72.3628 224.803 71.4535 224.534 70.4772C224.264 69.501 224.202 68.4794 224.349 67.4775C224.378 67.296 224.417 67.1162 224.466 66.939C224.595 66.4563 224.766 65.9858 224.977 65.5328C225.069 65.3201 225.172 65.1109 225.282 64.9051L229.155 63.5949H236.531L241.621 64.9977L241.964 65.0183L241.971 65.0938L242.128 65.1383L242.05 65.7969L243.078 75.0508Z" fill="black"/>
</g>
<path d="M224.724 43.8568C223.15 43.6637 221.422 43.8002 220.195 44.806C218.968 45.8117 218.571 47.9024 219.733 48.983C220.762 49.9397 222.37 49.7147 223.748 49.9867C224.935 50.2529 225.998 50.9099 226.768 51.8524C227.537 52.7949 227.969 53.9685 227.993 55.1854C227.972 58.675 224.625 61.3177 224.024 64.7552C223.614 67.1012 224.603 69.5702 226.312 71.2274C228.021 72.8845 230.371 73.7801 232.739 74.0227C235.107 74.2653 237.501 73.8947 239.802 73.286C242.113 72.6748 244.387 71.8076 246.326 70.409C248.265 69.0105 249.854 67.0389 250.477 64.7298C251.099 62.4207 250.652 59.7733 249.048 58.0003C247.211 55.9702 244.156 55.272 242.567 53.0421C240.786 50.5425 241.445 46.9827 240.003 44.2727C239.041 42.4634 237.218 41.2293 235.276 40.5792C233.333 39.9291 231.259 39.8007 229.212 39.7378C228.135 39.7047 227.026 39.6937 226.024 40.0863C225.021 40.4789 224.14 41.3736 224.088 42.4497C224.036 43.5258 224.724 43.8568 224.724 43.8568Z" fill="#2F2E41"/>
</g>
<defs>
<clipPath id="clip0_7_429">
<rect width="319" height="179" fill="white"/>
</clipPath>
</defs>
</svg>
