<svg width="274" height="169" viewBox="0 0 274 169" fill="none" xmlns="http://www.w3.org/2000/svg">
<g clip-path="url(#clip0_5_47)">
<path opacity="0.1" d="M274 108.441C274.005 113.016 273.452 117.574 272.355 122.014C271.986 123.509 271.557 124.974 271.069 126.41C270.47 128.18 269.778 129.916 268.994 131.612C268.598 132.468 268.18 133.308 267.74 134.133C267.747 138.824 266.783 143.466 264.909 147.764C261.519 155.476 255.478 161.712 247.885 165.336C243.131 167.608 237.935 168.802 232.668 168.832H52.0144C43.9761 168.85 36.0764 166.735 29.1186 162.703C28.0904 162.106 27.0885 161.471 26.113 160.797C23.9949 159.331 22.0049 157.687 20.1646 155.884C17.673 153.442 15.4781 150.715 13.6252 147.757C9.27218 140.833 6.96616 132.815 6.97425 124.632C2.56585 116.883 -0.00474548 107.6 -0.00474548 97.6256C-0.00474548 85.0407 4.08029 73.5606 10.7918 64.8701C12.191 63.0545 13.7236 61.3461 15.377 59.7593C17.0083 58.189 18.7616 56.7512 20.6205 55.4595C22.1072 54.424 23.6616 53.4897 25.2732 52.6628C25.9455 52.3179 26.6201 51.9963 27.3064 51.6957C27.9089 51.4277 28.5184 51.1783 29.1349 50.9429C29.8747 50.6601 30.6237 50.4015 31.3821 50.1668C32.1405 49.9322 32.8888 49.7256 33.627 49.5469C34.7127 49.2812 35.8169 49.0653 36.9397 48.899C37.8703 48.7615 38.8008 48.666 39.7313 48.5914C40.4711 48.5386 41.2171 48.5075 41.9693 48.4982H42.3764C43.2045 48.4982 44.0281 48.5308 44.8446 48.5868C44.9307 48.4143 45.0237 48.2395 45.1098 48.0671C45.4355 47.4471 45.7728 46.8272 46.1125 46.2189V46.2026C46.1706 46.0978 46.2288 45.9929 46.2893 45.8903C46.5638 45.3939 46.8499 44.9022 47.143 44.4151C47.278 44.1821 47.4106 43.963 47.5478 43.7416C47.578 43.688 47.6083 43.6367 47.6432 43.5831C47.7828 43.3501 47.9247 43.117 48.0689 42.884C48.787 41.7358 49.5337 40.6055 50.3092 39.4931C50.3766 39.3975 50.4394 39.3043 50.5069 39.2111C50.6279 39.0386 50.7395 38.8685 50.8745 38.6984C51.1955 38.2486 51.5258 37.7964 51.8585 37.3513C52.0911 37.0367 52.3238 36.7221 52.575 36.4191C53.1799 35.6361 53.801 34.8577 54.4361 34.0886C55.0712 33.3195 55.7411 32.5458 56.4181 31.7884C56.5112 31.6835 56.6042 31.5809 56.7019 31.4761L57.6953 30.3924C57.7441 30.3411 57.786 30.2945 57.8325 30.2479C57.9512 30.1197 58.0651 29.9915 58.1931 29.8657C58.7258 29.3017 59.2725 28.7447 59.8215 28.1947C62.6258 25.4033 65.6133 22.8028 68.7639 20.4108C68.8872 20.3129 69.0129 20.2197 69.1362 20.1264C69.7271 19.679 70.3272 19.2385 70.9274 18.805C74.2293 16.4333 77.6802 14.277 81.2587 12.3495C81.5053 12.2097 81.7565 12.0768 82.0101 11.944C85.2192 10.2444 88.519 8.7226 91.8947 7.38549C93.734 6.65681 95.6059 5.9763 97.5104 5.34395C98.7713 4.93145 100.037 4.53759 101.319 4.17869C103.301 3.60849 105.308 3.09423 107.339 2.63589C113.325 1.29045 119.414 0.459317 125.54 0.151556C127.401 0.0536739 129.283 0.00473364 131.186 0.00473364C140.368 -0.00744424 149.515 1.1516 158.404 3.4539C158.496 3.59306 158.622 3.7065 158.77 3.78355C158.918 3.86061 159.082 3.89874 159.249 3.89437H160.031C160.37 3.98526 160.708 4.08081 161.047 4.17869C162.944 4.72714 164.814 5.32453 166.656 5.97086L167.121 6.13866C171.669 7.75856 176.093 9.70574 180.36 11.965C184.206 13.9975 187.91 16.2898 191.445 18.826C191.99 19.2175 192.526 19.6129 193.055 20.0122C193.697 19.5974 194.35 19.202 195.014 18.826C197.577 17.3642 200.3 16.2022 203.128 15.3629C209.041 13.6099 215.298 13.3648 221.329 14.6497C229.065 16.2927 236.067 20.3711 241.722 26.1718C244.026 28.5375 246.078 31.1368 247.845 33.9278C247.973 34.1282 248.101 34.331 248.224 34.536C249.74 37.0146 251.043 39.6179 252.118 42.3177C252.158 42.4155 252.198 42.5111 252.232 42.609C253.226 45.1355 254.027 47.7337 254.629 50.3813C254.656 50.5141 254.689 50.6493 254.717 50.7844C255.28 53.3467 255.662 55.9454 255.862 58.5614C255.862 58.6546 255.862 58.7502 255.88 58.8457C255.978 60.199 256.027 61.567 256.029 62.9497C256.029 64.1849 255.987 65.4108 255.91 66.625C255.91 66.7578 255.892 66.8976 255.88 67.0328C255.859 67.3871 255.829 67.732 255.799 68.0885C257.575 69.5235 259.238 71.0943 260.772 72.7869C261.45 73.528 262.106 74.2978 262.74 75.0964C264.673 77.5219 266.371 80.1259 267.812 82.8734C271.739 90.3264 274 99.0751 274 108.441Z" fill="#004679"/>
<path opacity="0.1" d="M247.712 154.313C247.712 159.61 242.232 164.567 232.668 168.837H52.0144C43.6559 168.837 35.8278 165.807 29.1187 160.524C27.4321 158.52 26.5434 156.443 26.5434 154.311C26.5434 148.68 32.7408 143.425 43.4559 138.983L43.7583 138.862C46.7825 137.62 50.1627 136.447 53.8569 135.345C53.95 135.317 54.0453 135.291 54.1384 135.259C57.0696 134.396 60.1876 133.579 63.4926 132.807C63.5973 132.784 63.6996 132.758 63.8043 132.739C65.0791 132.436 66.3795 132.155 67.7079 131.873L68.2197 131.765C77.8856 129.756 88.8728 128.162 100.788 127.081H100.802C102.471 126.926 104.158 126.787 105.862 126.664C107.758 126.512 109.677 126.384 111.617 126.265C113.099 126.17 114.6 126.088 116.105 126.014C116.11 126.011 116.116 126.01 116.122 126.01C116.128 126.01 116.134 126.011 116.14 126.014C122.93 125.671 129.947 125.492 137.121 125.492C154.862 125.492 171.63 126.582 186.488 128.521C186.502 128.519 186.516 128.519 186.53 128.521C188.814 128.82 191.057 129.134 193.244 129.47C193.87 129.568 194.493 129.666 195.105 129.766C197.572 130.165 199.976 130.587 202.316 131.031C229.837 136.273 247.712 144.753 247.712 154.313Z" fill="#004679"/>
<path d="M202.74 56.6969C202.74 56.6969 200.279 55.6971 192.448 59.2931C184.618 62.8891 183.641 62.4346 181.614 61.894C179.588 61.3533 178.458 61.2134 176.285 58.2094C176.285 58.2094 174.752 49.8871 173.261 48.596C171.769 47.3049 165.474 49.3325 165.474 49.3325C165.474 49.3325 157.916 51.0687 156.476 40.9426C156.476 40.9426 157.497 33.3171 156.106 30.9773C156.106 30.9773 158.916 32.1891 163.55 30.2315C168.184 28.2739 171.895 32.3406 171.895 32.3406C171.895 32.3406 173.058 35.3703 172.942 37.1788C172.826 38.9873 173.561 39.6655 175.771 38.7915C175.771 38.7915 176.857 37.244 175.319 34.6851C173.782 32.1262 172.684 30.2222 173.112 28.2366C173.54 26.251 174.775 23.494 178.741 22.1166C182.708 20.7393 188.093 20.4853 190.678 19.3969C193.262 18.3086 193.9 17.6141 193.9 17.6141C193.9 17.6141 192.309 19.2105 196.056 25.9806C199.804 32.7508 197.415 35.6873 197.415 35.6873C197.415 35.6873 195.421 40.4485 186.618 40.0616C186.618 40.0616 178.137 40.3716 182.761 43.9746C182.761 43.9746 185.723 43.371 190.15 41.961C194.577 40.5511 197.773 46.3704 198.566 50.4185C199.36 54.4666 202.74 56.6969 202.74 56.6969Z" fill="#004679"/>
<path d="M191.338 22.7412L191.385 22.7272C191.725 24.0183 187.935 29.2107 184.694 33.3381L184.657 33.3078C189.226 27.4955 191.601 23.741 191.338 22.7412Z" fill="#444053"/>
<path d="M184.722 33.2286L184.743 33.2798C182.154 36.5752 178.9 40.5044 176.294 43.4246C176.045 43.7019 175.799 43.9932 175.561 44.2915L175.487 44.2309C175.719 43.9326 175.973 43.639 176.222 43.3617C178.825 40.4532 182.131 36.5262 184.722 33.2286Z" fill="#444053"/>
<path d="M175.55 44.1564L175.601 44.2449C170.86 50.1761 170.546 59.3933 170.534 59.4656L169.534 58.3003C169.545 58.2257 170.776 50.1295 175.55 44.1564Z" fill="#444053"/>
<path d="M197.252 53.4808C197.252 53.4808 191.669 50.5676 187.305 51.6164C182.94 52.6651 173.126 47.9108 173.126 47.9108C173.126 47.9108 168.961 46.2165 168.124 44.2845C168.124 44.2845 165.265 41.2549 165.1 39.6911C164.935 38.1273 162.155 34.1864 160.34 34.0349" stroke="#444053" stroke-miterlimit="10"/>
<path d="M196.431 56.2844C196.431 56.2844 193.616 54.3827 193.944 52.1687" stroke="#444053" stroke-miterlimit="10"/>
<path d="M192.113 58.7384C192.113 58.7384 188.086 57.2749 187.693 51.5325" stroke="#444053" stroke-miterlimit="10"/>
<path d="M185.62 60.2253C185.62 60.2253 181.773 57.0278 183.05 51.4392" stroke="#444053" stroke-miterlimit="10"/>
<path d="M177.806 58.6639C177.806 58.6639 175.247 53.2804 177.525 49.7776" stroke="#444053" stroke-miterlimit="10"/>
<path d="M197.306 49.9314C197.306 49.9314 194.395 50.8636 195.019 52.3924" stroke="#444053" stroke-miterlimit="10"/>
<path d="M193.793 44.6481C193.793 44.6481 189.896 45.8856 189.805 51.4066" stroke="#444053" stroke-miterlimit="10"/>
<path d="M188.358 43.3617C188.358 43.3617 184.811 47.7477 185.071 51.7329" stroke="#444053" stroke-miterlimit="10"/>
<path d="M182.147 45.0816C182.147 45.0816 178.625 48.4562 179.074 50.3322" stroke="#444053" stroke-miterlimit="10"/>
<path d="M180.023 43.8907C180.023 43.8907 176.72 44.4826 176.257 43.3966" stroke="#444053" stroke-miterlimit="10"/>
<path d="M175.731 39.8962C175.731 39.8962 177.399 42.1102 177.825 41.6138" stroke="#444053" stroke-miterlimit="10"/>
<path d="M192.276 38.4955C192.276 38.4955 183.948 39.1015 182.063 36.5845" stroke="#444053" stroke-miterlimit="10"/>
<path d="M173.989 28.7376C173.989 28.7376 177.895 37.1392 180.735 38.2089" stroke="#444053" stroke-miterlimit="10"/>
<path d="M178.078 24.7361C178.078 24.7361 180.477 32.4642 183.45 34.8762" stroke="#444053" stroke-miterlimit="10"/>
<path d="M195.779 32.1169C195.779 32.1169 189.447 34.8389 185.646 32.0843" stroke="#444053" stroke-width="0.75" stroke-miterlimit="10"/>
<path d="M183.717 23.0885C183.717 23.0885 185.164 28.7679 187.114 30.1406" stroke="#444053" stroke-width="0.75" stroke-miterlimit="10"/>
<path d="M194.823 25.7522C194.823 25.7522 191.264 27.1039 189.938 26.0692" stroke="#444053" stroke-width="0.75" stroke-miterlimit="10"/>
<path d="M172.681 41.7513C172.681 41.7513 172.681 46.7036 171.337 47.0555" stroke="#444053" stroke-miterlimit="10"/>
<path d="M161.68 48.1672C161.68 48.1672 167.031 48.6333 169.49 45.8623" stroke="#444053" stroke-miterlimit="10"/>
<path d="M171.304 35.9017C171.304 35.9017 170.011 40.9239 166.442 42.278" stroke="#444053" stroke-miterlimit="10"/>
<path d="M158.474 42.8769C158.474 42.8769 162.257 44.1937 165.512 40.84" stroke="#444053" stroke-miterlimit="10"/>
<path d="M167.096 31.5832C167.096 31.5832 166.74 35.8481 164.425 37.8453" stroke="#444053" stroke-miterlimit="10"/>
<path d="M158.619 36.3771C158.619 36.3771 161.757 36.3981 162.492 35.3726" stroke="#444053" stroke-miterlimit="10"/>
<path d="M181.317 52.5719H91.939V97.77H181.317V52.5719Z" fill="#33323D"/>
<path d="M209.442 111.501H64.0974V141.253H209.442V111.501Z" fill="#33323D"/>
<path d="M98.7923 118.938H173.321L188.17 169H83.0873L98.7923 118.938Z" fill="white"/>
<path d="M59.9566 93.7638V109.213V112.466V141.251H87.7981V113.79H185.741V141.251H213.583V112.466V109.213V93.7638H59.9566Z" fill="#504F60"/>
<path opacity="0.1" d="M213.583 93.7638H59.9566V109.211H213.583V93.7638Z" fill="#33323D"/>
<path opacity="0.8" d="M205.303 103.778C206.565 103.778 207.588 102.753 207.588 101.49C207.588 100.226 206.565 99.2009 205.303 99.2009C204.042 99.2009 203.019 100.226 203.019 101.49C203.019 102.753 204.042 103.778 205.303 103.778Z" fill="#8CCF4D"/>
<path opacity="0.8" d="M195.023 103.778C196.285 103.778 197.308 102.753 197.308 101.49C197.308 100.226 196.285 99.2009 195.023 99.2009C193.762 99.2009 192.739 100.226 192.739 101.49C192.739 102.753 193.762 103.778 195.023 103.778Z" fill="#FA5959"/>
<path d="M178.034 41.7H95.2237V90.9019H178.034V41.7Z" fill="white"/>
<path d="M52.3355 76.3851C52.4383 76.3851 52.5216 76.3016 52.5216 76.1987C52.5216 76.0957 52.4383 76.0122 52.3355 76.0122C52.2327 76.0122 52.1494 76.0957 52.1494 76.1987C52.1494 76.3016 52.2327 76.3851 52.3355 76.3851Z" fill="#E6E8EC"/>
<path d="M63.3321 82.1532C63.5029 82.1532 63.6415 82.0144 63.6415 81.8432C63.6415 81.672 63.5029 81.5332 63.3321 81.5332C63.1612 81.5332 63.0227 81.672 63.0227 81.8432C63.0227 82.0144 63.1612 82.1532 63.3321 82.1532Z" fill="#E6E8EC"/>
<path d="M135.399 143.157C131.852 141.686 130.81 140.624 130.81 138.496C130.81 136.864 131.526 134.981 134.667 134.981C136.403 134.956 138.108 135.442 139.571 136.38L140.592 133.674C139.408 132.975 137.737 132.325 135.29 132.243V128.281H133.227V132.406C129.474 133.019 127.302 135.592 127.302 138.983C127.302 142.537 129.395 144.418 133.564 146.051C136.584 147.284 138.163 148.673 138.163 150.92C138.163 153.25 136.207 154.924 133.31 154.924C131.028 154.924 128.441 154.148 126.974 153.166L125.994 155.902C127.422 156.926 129.87 157.66 132.233 157.702V161.827H135.744V157.578C139.931 156.879 142.185 153.849 142.185 150.633C142.185 146.998 139.601 144.872 135.399 143.157Z" fill="url(#paint0_linear_5_47)"/>
<path d="M132.243 160.894V156.769C129.879 156.727 127.432 155.993 126.003 154.97L126.983 152.234C128.451 153.215 131.038 153.991 133.32 153.991C136.216 153.991 138.163 152.318 138.163 149.988C138.163 147.741 136.574 146.352 133.555 145.126C129.395 143.495 127.292 141.612 127.292 138.058C127.292 134.667 129.465 132.094 133.217 131.481V127.356H135.281V131.318C137.728 131.399 139.398 132.052 140.583 132.749L139.561 135.443C138.099 134.505 136.394 134.019 134.657 134.045C131.517 134.045 130.8 135.925 130.8 137.559C130.8 139.682 131.843 140.745 135.39 142.22C139.592 143.935 142.176 146.061 142.176 149.696C142.176 152.924 139.934 155.947 135.734 156.641V160.894H132.243Z" fill="#004679"/>
</g>
<defs>
<linearGradient id="paint0_linear_5_47" x1="126.003" y1="145.056" x2="142.185" y2="145.056" gradientUnits="userSpaceOnUse">
<stop stop-color="#808080" stop-opacity="0.25"/>
<stop offset="0.54" stop-color="#808080" stop-opacity="0.12"/>
<stop offset="1" stop-color="#808080" stop-opacity="0.1"/>
</linearGradient>
<clipPath id="clip0_5_47">
<rect width="274" height="169" fill="white"/>
</clipPath>
</defs>
</svg>
