<svg width="253" height="218" viewBox="0 0 253 218" fill="none" xmlns="http://www.w3.org/2000/svg">
<g clip-path="url(#clip0_7_487)">
<path d="M105.24 189.389L108.004 180.385C104.679 176.724 100.511 173.93 95.8622 172.246C100.404 179.775 96.003 189.596 97.837 198.196C98.4295 200.874 99.6168 203.384 101.311 205.54C103.005 207.697 105.162 209.444 107.623 210.653L111.816 215.851C114.014 212.008 115.354 207.735 115.742 203.324C116.131 198.913 115.559 194.471 114.066 190.303C113.206 187.973 112.055 185.761 110.642 183.718C108.15 186.649 105.24 189.389 105.24 189.389Z" fill="#F2F2F2"/>
<path d="M90.0461 190.539L88.5059 181.247C83.8982 179.454 78.9226 178.813 74.0111 179.38C81.4321 184.092 81.8707 194.846 87.3457 201.725C89.0697 203.858 91.2512 205.575 93.7286 206.749C96.206 207.923 98.9158 208.524 101.657 208.508L107.727 211.29C107.982 206.87 107.276 202.447 105.658 198.326C104.039 194.205 101.547 190.484 98.3533 187.419C96.5444 185.718 94.5286 184.251 92.3534 183.053C91.4296 186.789 90.0461 190.539 90.0461 190.539Z" fill="#F2F2F2"/>
<path d="M180.486 213.54L176.229 213.54L174.204 197.114L180.486 197.115L180.486 213.54Z" fill="#FFB6B6"/>
<path d="M181.571 217.668L167.847 217.668V217.494C167.847 216.077 168.41 214.717 169.411 213.715C170.413 212.713 171.772 212.15 173.189 212.15H173.189L175.696 210.247L180.373 212.15L181.571 212.15L181.571 217.668Z" fill="#2F2E41"/>
<path d="M249.242 198.007L246.34 201.122L232.949 191.405L237.232 186.808L249.242 198.007Z" fill="#FFB6B6"/>
<path d="M253 200.027L243.642 210.072L243.515 209.953C242.479 208.987 241.869 207.648 241.819 206.232C241.769 204.815 242.284 203.437 243.25 202.4L243.25 202.399L243.568 199.267L248.148 197.141L248.965 196.265L253 200.027Z" fill="#2F2E41"/>
<path d="M242.944 188.776L238.445 198.19L210.819 179.889L206.8 174.41L193.622 156.446L188.265 164.95L184.538 173.84C183.323 174.633 182.3 175.686 181.541 176.923C180.783 178.159 180.308 179.549 180.152 180.992L179.981 182.566L182.337 203.75L173.385 206.5L168.243 178.042L169.924 171.875L171.654 163.219L180.366 135.866H203.678L217.05 164.342L218.027 170.144L221.818 174.497L242.944 188.776Z" fill="#2F2E41"/>
<path d="M194.496 91.1134L198.42 94.1032L203.153 95.5583C203.153 95.5583 205.11 123.095 206.873 124.858C208.636 126.622 207.046 126.67 207.4 128.961C207.754 131.253 208.615 135.95 208.615 135.95C196.715 142.252 186.456 142.421 178.215 135.046C178.11 134.59 178.163 134.111 178.367 133.69C178.571 133.268 178.912 132.929 179.335 132.728C180.869 131.914 177.921 128.114 179.175 127.478C180.428 126.843 178.665 121.331 178.665 121.331L179.822 109.83L178.908 107.992L181.138 96.7426L185.007 95.3289L186.552 91.6032L194.496 91.1134Z" fill="#3F3D56"/>
<path d="M196.954 140.055C196.937 139.557 197.028 139.062 197.223 138.604C197.417 138.146 197.709 137.736 198.079 137.403C198.449 137.071 198.887 136.823 199.363 136.678C199.839 136.533 200.34 136.494 200.833 136.564L206.364 125.809L209.445 131.286L203.72 140.66C203.548 141.48 203.081 142.208 202.408 142.706C201.735 143.205 200.903 143.439 200.069 143.364C199.235 143.289 198.457 142.911 197.883 142.301C197.309 141.691 196.979 140.892 196.954 140.055H196.954Z" fill="#FFB6B6"/>
<path d="M206.269 137.423L218.131 119.028L218.092 118.944C218.047 118.847 215.361 113.042 212.758 107.726C212.357 106.907 211.958 106.1 211.571 105.327C211.404 104.993 211.24 104.666 211.078 104.347C209.985 102.19 209.03 100.408 208.459 99.5615C207.198 97.6473 205.321 96.2223 203.139 95.523L203.084 95.5089L203.031 95.5307C201.964 95.9814 201.082 96.7825 200.531 97.802C199.979 98.8215 199.792 99.9986 199.999 101.139C201.028 106.64 203.321 111.826 206.696 116.289L208.619 118.825L201.936 133.362L206.269 137.423Z" fill="#3F3D56"/>
<path d="M165.477 66.9123C165.803 67.2876 166.044 67.7299 166.181 68.2082C166.318 68.6864 166.349 69.189 166.271 69.6804C166.194 70.1719 166.009 70.6403 165.731 71.0527C165.452 71.4651 165.087 71.8114 164.66 72.0672L167.133 83.9071L161.292 81.5932L159.839 70.7046C159.457 69.9592 159.362 69.0994 159.571 68.2882C159.78 67.477 160.28 66.7707 160.974 66.3033C161.669 65.8358 162.511 65.6396 163.341 65.7519C164.171 65.8641 164.931 66.277 165.477 66.9123H165.477Z" fill="#FFB6B6"/>
<path d="M159.897 74.8244L162.259 96.5881L162.343 96.6292C162.412 96.6631 165.404 98.1316 169.078 99.8806C169.697 100.176 169.609 101.454 170.256 101.759C170.702 101.97 171.88 101.206 172.331 101.417C176.346 103.296 180.406 105.122 182.024 105.617C184.209 106.31 186.564 106.234 188.7 105.402L188.751 105.379L188.778 105.329C189.324 104.306 189.505 103.128 189.291 101.989C189.078 100.849 188.483 99.817 187.604 99.0614C183.343 95.4363 178.297 92.8518 172.866 91.5119L169.776 90.7533L165.819 75.2499L159.897 74.8244Z" fill="#3F3D56"/>
<path d="M190.312 89.8803C194.599 89.8803 198.074 86.4031 198.074 82.1138C198.074 77.8244 194.599 74.3472 190.312 74.3472C186.025 74.3472 182.549 77.8244 182.549 82.1138C182.549 86.4031 186.025 89.8803 190.312 89.8803Z" fill="#FFB6B6"/>
<path d="M182.605 76.9095C183.243 75.0514 186.421 73.7626 191.573 73.5834C196.725 73.4042 198.031 79.4784 198.031 79.4784C201.47 82.2697 194.359 89.7428 194.015 89.4737L194.169 88.0696C194.426 85.744 195.514 83.9294 194.13 81.5057L192.801 81.521C191.084 81.8513 189.367 82.1815 187.65 82.5118L189.683 80.7214L189.626 80.6327C188.761 81.0832 187.82 81.369 186.851 81.4755C185.759 81.5397 184.565 81.1048 184.041 80.1432C183.902 79.8789 183.816 79.5893 183.79 79.2914C182.317 79.8803 181.644 81.6972 181.644 81.6972C181.644 81.6972 181.967 78.7676 182.605 76.9095Z" fill="#2F2E41"/>
<path d="M31.275 77.3754C31.1697 77.2418 31.0563 77.1148 30.9354 76.995C30.965 76.9544 30.9945 76.9101 31.024 76.8695L31.275 77.3754Z" fill="#2F2E41"/>
<path d="M32.7848 108.612C31.515 110.869 28.9791 112.128 26.4654 112.745C23.6419 113.485 20.6687 113.427 17.8759 112.579C17.5215 112.464 17.1671 112.331 16.8239 112.183C16.9889 111.745 17.1197 111.294 17.2151 110.835C17.3436 110.215 17.4079 109.582 17.4071 108.948C17.1274 109.494 16.7651 109.994 16.3329 110.429C15.9996 110.78 15.621 111.084 15.2071 111.334C13.9234 110.554 12.8119 109.522 11.9404 108.298C11.9957 108.162 12.0511 108.025 12.1028 107.888C12.3708 107.175 12.5831 106.441 12.7377 105.695C12.9474 104.685 13.0525 103.657 13.0514 102.626C12.5963 103.514 12.006 104.326 11.3018 105.033C11.0906 105.259 10.8663 105.473 10.63 105.672C10.264 104.56 10.1225 103.387 10.2138 102.219C10.305 101.052 10.6272 99.9148 11.1615 98.8733C12.6232 96.1699 15.4581 94.5634 17.9829 92.8165C20.5114 91.0696 23.0399 88.706 23.254 85.637C23.398 83.5652 22.4382 81.4896 22.8221 79.451C22.9836 78.5913 23.3777 77.7925 23.9617 77.1414C24.5456 76.4904 25.2969 76.0122 26.1337 75.7589C26.9705 75.5056 27.8607 75.4869 28.7074 75.7049C29.5541 75.9228 30.3248 76.3691 30.9355 76.995C29.5033 79.0263 28.0784 81.1277 27.4989 83.543C26.9083 86.0026 27.3919 88.887 29.3298 90.5157C29.9942 91.077 30.81 91.4759 31.3231 92.1776C32.0059 93.1082 32.0096 94.3491 32.1204 95.494C32.3418 97.721 33.069 99.863 33.4603 102.068C33.8552 104.269 33.8774 106.658 32.7848 108.612Z" fill="#2F2E41"/>
<path d="M6.75488 200.197L10.1238 202.801L21.7668 191.039L16.7946 187.195L6.75488 200.197Z" fill="#A0616A"/>
<path d="M6.89815 197.652L12.4691 201.451L10.7061 203.734L13.0672 211.146C13.1839 211.512 13.1805 211.906 13.0576 212.27C12.9347 212.634 12.6988 212.949 12.3841 213.17C12.0695 213.39 11.6927 213.504 11.3088 213.495C10.9248 213.486 10.5538 213.354 10.2499 213.119L3.90992 208.218L4.56099 205.115L2.39044 207.043L0 205.195L6.89815 197.652Z" fill="#2F2E41"/>
<path d="M23.8464 83.9368C23.8459 85.2537 24.1686 86.5507 24.786 87.7137C25.4034 88.8768 26.2968 89.8704 27.3876 90.6074C28.4785 91.3444 29.7334 91.8022 31.0424 91.9406C32.3513 92.079 33.6743 91.8938 34.895 91.4013C36.1157 90.9088 37.1969 90.124 38.0437 89.1158C38.8905 88.1076 39.477 86.9068 39.7518 85.6189C40.0265 84.3309 39.981 82.9952 39.6193 81.729C39.2576 80.4628 38.5907 79.3047 37.6773 78.3565L37.6387 78.318C37.5744 78.2503 37.51 78.1828 37.4425 78.1184C37.442 78.1184 37.4416 78.1183 37.4412 78.1182C37.4408 78.118 37.4405 78.1178 37.4402 78.1175C37.4399 78.1172 37.4396 78.1168 37.4395 78.1164C37.4393 78.116 37.4393 78.1156 37.4393 78.1152C37.3556 78.0379 37.272 77.9607 37.1851 77.8867C35.7699 76.6445 33.7808 75.2962 31.7512 75.2962C27.3092 75.2962 23.8464 79.4925 23.8464 83.9368Z" fill="#2F2E41"/>
<path d="M69.6801 79.8052C69.7186 80.2343 69.6625 80.6666 69.516 81.0717C69.3694 81.4769 69.1358 81.8449 68.8317 82.1499C68.5276 82.4549 68.1604 82.6895 67.7559 82.8372C67.3513 82.9848 66.9194 83.0419 66.4904 83.0045L46.5784 100.992L43.1517 95.5776L63.8021 79.5988C63.9127 78.8819 64.2824 78.2306 64.8409 77.7682C65.3995 77.3058 66.1082 77.0644 66.8327 77.0898C67.5572 77.1153 68.2473 77.4057 68.7721 77.9062C69.2969 78.4067 69.6199 79.0823 69.6801 79.8052V79.8052Z" fill="#A0616A"/>
<path d="M38.0683 106.422C38.0683 106.422 38.8091 107.791 41.3399 105.677C43.3659 103.984 53.0725 96.6373 55.1636 93.6266C55.6411 93.8159 56.1679 93.8408 56.6612 93.6976C57.1544 93.5543 57.586 93.2509 57.8879 92.8351L52.1583 87.8147C50.4441 88.0122 50.4808 89.1644 50.6593 89.8186L46.3374 91.7777L35.177 98.9137L37.5152 105.442L38.0683 106.422Z" fill="#00682A"/>
<path d="M27.2565 119.035L26.8391 121.023L26.4847 128.358L42.0867 129.216L41.6022 117.935L40.0899 115.449L27.2565 119.035Z" fill="#A0616A"/>
<path d="M33.8687 92.5447C37.5927 92.5447 40.6116 89.5242 40.6116 85.7983C40.6116 82.0724 37.5927 79.0519 33.8687 79.0519C30.1447 79.0519 27.1259 82.0724 27.1259 85.7983C27.1259 89.5242 30.1447 92.5447 33.8687 92.5447Z" fill="#A0616A"/>
<path d="M21.8975 110.682L21.8561 105.074C21.8551 103.056 22.5376 101.098 23.7922 99.5179C25.0467 97.9381 26.7994 96.8302 28.7641 96.3751L28.7896 96.3691L30.1229 94.5717L35.5399 95.1138L36.5328 97.1441L40.4581 99.4826L41.9694 104.343C42.6249 104.781 43.1836 105.348 43.6107 106.01C44.0378 106.672 44.3242 107.415 44.4521 108.193C44.9652 111.472 42.6705 114.753 42.3975 115.13L41.6942 119.092L26.3946 121.793L26.2704 121.809L21.8975 110.682Z" fill="#00682A"/>
<path d="M42.12 84.5955C41.3335 85.094 40.5174 85.5441 39.6763 85.9435C38.8227 86.3538 37.9298 86.6768 37.0113 86.9075C36.7485 86.3305 36.4269 85.7823 36.0516 85.2714C36.1481 85.8768 36.1506 86.4934 36.0589 87.0995C34.5364 87.3453 32.9771 87.2173 31.515 86.7265L30.2452 84.5956L30.1492 86.9739C29.0973 87.166 28.0489 87.347 26.9969 87.5353C26.9342 87.5427 26.8715 87.5575 26.8124 87.5685C26.159 84.6214 27.0855 81.3751 29.1452 79.4104C30.1679 78.4451 31.4436 77.7903 32.8237 77.5222C34.2039 77.2542 35.6318 77.3838 36.9411 77.8962C37.1073 77.9627 37.277 78.0365 37.4394 78.1141C37.4394 78.1146 37.4395 78.1151 37.4397 78.1155C37.4399 78.116 37.4402 78.1164 37.4405 78.1167C37.4408 78.1171 37.4413 78.1174 37.4417 78.1175C37.4422 78.1177 37.4427 78.1178 37.4431 78.1178C37.5391 78.1658 37.6203 78.2803 37.7274 78.2692C42.334 77.7558 42.4817 81.3308 42.12 84.5955Z" fill="#2F2E41"/>
<path d="M30.9026 191.497L34.2767 194.095L45.8962 182.31L40.9163 178.476L30.9026 191.497Z" fill="#A0616A"/>
<path d="M31.3467 189.188L36.9253 192.976L35.1669 195.262L37.5429 202.67C37.6603 203.036 37.6578 203.429 37.5356 203.794C37.4135 204.158 37.1781 204.474 36.8639 204.695C36.5498 204.916 36.1732 205.03 35.7892 205.022C35.4053 205.014 35.034 204.883 34.7297 204.649L28.3798 199.76L29.0246 196.656L26.8579 198.588L24.4637 196.745L31.3467 189.188Z" fill="#2F2E41"/>
<path d="M19.9536 177.114L19.9534 177.07L21.5526 174.313L19.9197 170.724L19.8707 161.503L20.1354 160.119C20.4914 158.257 20.3878 156.337 19.8336 154.524L19.8038 148.911C19.7464 147.505 21.9234 146.269 21.4157 145.097C16.6171 134.017 26.3159 125.565 26.3814 125.497L26.5796 125.291L27.6549 126.106L28.6785 126.107L42.4905 128.625L42.5903 128.811C43.1335 129.831 44.182 133.345 44.2441 134.935C44.9325 135.733 52.7736 144.811 53.4706 145.441C58.1808 149.705 60.8776 156.763 62.0659 160.59C62.361 161.536 62.4205 162.54 62.2392 163.514C62.0579 164.488 61.6412 165.404 61.0256 166.18L43.194 185.721L38.3954 181.29L48.0439 163.699L47.3481 161.914C46.0998 161.683 44.97 161.027 44.1516 160.056L42.1979 157.736C41.6569 157.095 41.3132 156.311 41.2083 155.479L40.0234 155.336L35.7794 150.878L32.8349 177.557L32.0344 179.665L18.0936 196.062L12.1876 192.369L19.9536 177.114Z" fill="#2F2E41"/>
<path d="M17.8247 62.5581C17.5569 62.8955 17.3662 63.2875 17.2662 63.7065C17.1661 64.1256 17.1592 64.5615 17.2457 64.9835C17.3323 65.4056 17.5103 65.8035 17.7672 66.1493C18.024 66.495 18.3536 66.7802 18.7326 66.9848L14.2997 80.1151L17.9194 94.0297L23.7561 91.3896L20.1544 80.8942L22.8491 65.6173C23.1503 64.9575 23.1993 64.2101 22.9865 63.5167C22.7738 62.8233 22.3143 62.232 21.695 61.8549C21.0756 61.4778 20.3396 61.3411 19.6263 61.4707C18.913 61.6004 18.2719 61.9873 17.8247 62.5581V62.5581Z" fill="#A0616A"/>
<path d="M23.1674 105.495C23.1674 105.495 21.7965 106.231 20.8431 103.074C20.0798 100.546 14.8854 86.8208 14.7918 83.1557C14.2889 83.0513 13.835 82.7825 13.5016 82.3916C13.1682 82.0007 12.9742 81.51 12.9503 80.9967L20.4946 79.9521C21.8184 81.0595 21.1549 82.002 20.6465 82.4504L23.216 86.8051L28.5867 98.5613L24.1677 104.98L23.1674 105.495Z" fill="#00682A"/>
<path d="M26.9954 87.5347C27.7701 85.1971 29.1593 83.1112 31.0173 81.4957C32.8752 79.8803 35.1335 78.7948 37.5551 78.3533C37.5647 78.3501 37.5969 78.3372 37.6387 78.318C37.6644 78.3018 37.6966 78.2858 37.7288 78.2697C37.6323 78.215 37.539 78.1667 37.4425 78.1184C37.4421 78.1184 37.4416 78.1183 37.4412 78.1182C37.4408 78.118 37.4405 78.1178 37.4402 78.1175C37.4399 78.1172 37.4397 78.1168 37.4395 78.1164C37.4393 78.116 37.4393 78.1156 37.4393 78.1152C37.3556 78.0379 37.272 77.9607 37.1852 77.8867L36.9407 77.8964C36.9407 77.8964 28.3495 76.5351 26.9954 87.5347Z" fill="#FD6584"/>
<path d="M137.853 162.713C138.791 161.303 138.236 159.284 136.613 158.204C134.991 157.124 132.916 157.392 131.978 158.802C131.041 160.212 131.596 162.231 133.218 163.311C134.84 164.39 136.915 164.123 137.853 162.713Z" fill="#F2F2F2"/>
<path d="M118.819 110.084C119.757 108.674 119.202 106.655 117.58 105.575C115.958 104.495 113.882 104.763 112.945 106.173C112.007 107.583 112.562 109.602 114.184 110.682C115.807 111.761 117.882 111.494 118.819 110.084Z" fill="#F2F2F2"/>
<path d="M198.414 191.105C199.352 189.695 198.797 187.676 197.175 186.596C195.553 185.516 193.477 185.784 192.54 187.194C191.602 188.604 192.157 190.623 193.779 191.703C195.402 192.782 197.477 192.515 198.414 191.105Z" fill="#F2F2F2"/>
<path d="M37.4943 21.7914C38.4319 20.3814 37.8769 18.3629 36.2547 17.283C34.6325 16.2032 32.5573 16.4709 31.6196 17.881C30.682 19.291 31.237 21.3095 32.8592 22.3893C34.4814 23.4692 36.5566 23.2015 37.4943 21.7914Z" fill="#F2F2F2"/>
<path d="M112.59 5.17172C113.528 3.76165 112.973 1.74319 111.351 0.663342C109.729 -0.416502 107.653 -0.148809 106.716 1.26126C105.778 2.67132 106.333 4.68981 107.955 5.76966C109.578 6.8495 111.653 6.58179 112.59 5.17172Z" fill="#F2F2F2"/>
<path d="M77.0495 144.609C77.9871 143.199 77.4321 141.181 75.8099 140.101C74.1876 139.021 72.1124 139.289 71.1748 140.699C70.2372 142.109 70.7921 144.127 72.4144 145.207C74.0366 146.287 76.1118 146.019 77.0495 144.609Z" fill="#E6E6E6"/>
<path d="M231.956 218H6.91208C6.803 218 6.6985 217.956 6.62148 217.879C6.54447 217.802 6.50122 217.697 6.50122 217.588C6.50122 217.479 6.54447 217.374 6.62148 217.297C6.6985 217.219 6.803 217.176 6.91208 217.175H231.956C232.065 217.175 232.17 217.219 232.247 217.296C232.325 217.374 232.368 217.478 232.368 217.588C232.368 217.697 232.325 217.802 232.247 217.879C232.17 217.957 232.065 218 231.956 218V218Z" fill="#CCCCCC"/>
<path d="M48.7981 81.0771C46.9051 81.0716 45.0805 80.3683 43.6731 79.1016C42.2657 77.835 41.3742 76.0938 41.1692 74.2109L36.7757 33.3864C36.5599 31.3595 37.1565 29.3296 38.4346 27.7422C39.7127 26.1548 41.568 25.1395 43.5935 24.919L174.044 10.8657C176.07 10.6496 178.099 11.2464 179.685 12.5252C181.272 13.804 182.287 15.6603 182.507 17.6868L186.901 58.5111C187.117 60.5381 186.52 62.568 185.242 64.1555C183.964 65.743 182.108 66.7583 180.083 66.9788L180.064 66.8067L180.083 66.9788L49.6324 81.0321C49.3553 81.0621 49.0768 81.0771 48.7981 81.0771V81.0771Z" fill="#E6E6E6"/>
<path d="M172.607 12.7609C172.362 12.761 172.117 12.7742 171.874 12.8005L46.1263 26.3471C45.247 26.4418 44.395 26.7089 43.6189 27.133C42.8428 27.5572 42.1578 28.1302 41.603 28.8192C41.0482 29.5082 40.6345 30.2998 40.3855 31.1488C40.1365 31.9978 40.0571 32.8876 40.1517 33.7673L42.3731 54.4086C42.7322 57.7455 43.7446 60.979 45.3527 63.9244C46.9608 66.8698 49.133 69.4695 51.7452 71.575C54.3575 73.6805 57.3586 75.2506 60.5774 76.1956C63.7961 77.1407 67.1694 77.4421 70.5046 77.0828L158.926 67.5572C162.251 67.199 165.473 66.1891 168.408 64.5851C171.343 62.9811 173.933 60.8144 176.031 58.2087C178.129 55.603 179.694 52.6095 180.635 49.3988C181.577 46.1882 181.877 42.8235 181.519 39.4967L179.29 18.7781C179.112 17.1278 178.332 15.6011 177.099 14.4908C175.866 13.3804 174.266 12.7644 172.607 12.7609V12.7609Z" fill="white"/>
<path d="M146.127 34.2425L75.8449 41.8139C75.6439 41.8359 75.4406 41.8179 75.2466 41.7612C75.0525 41.7044 74.8716 41.61 74.7141 41.4832C74.5566 41.3564 74.4256 41.1998 74.3286 41.0223C74.2317 40.8449 74.1706 40.65 74.149 40.4489C74.1273 40.2478 74.1455 40.0445 74.2025 39.8504C74.2595 39.6564 74.3542 39.4754 74.4811 39.318C74.608 39.1606 74.7647 39.0298 74.9422 38.933C75.1197 38.8362 75.3145 38.7754 75.5155 38.754L145.797 31.1826C145.998 31.1607 146.202 31.1786 146.396 31.2354C146.59 31.2921 146.771 31.3866 146.928 31.5134C147.086 31.6401 147.217 31.7967 147.314 31.9742C147.41 32.1517 147.472 32.3465 147.493 32.5476C147.515 32.7487 147.497 32.9521 147.44 33.1461C147.383 33.3402 147.288 33.5211 147.161 33.6785C147.034 33.8359 146.877 33.9668 146.7 34.0635C146.522 34.1603 146.328 34.2211 146.127 34.2425V34.2425Z" fill="#00682A"/>
<path d="M147.137 43.6337L76.8555 51.2051C76.4499 51.2488 76.0436 51.1295 75.726 50.8734C75.4083 50.6174 75.2053 50.2456 75.1617 49.8398C75.118 49.4341 75.2372 49.0276 75.4931 48.7097C75.749 48.3919 76.1206 48.1888 76.5262 48.1451L146.808 40.5737C147.214 40.53 147.62 40.6493 147.937 40.9053C148.255 41.1614 148.458 41.5332 148.502 41.9389C148.545 42.3447 148.426 42.7512 148.17 43.069C147.914 43.3869 147.543 43.59 147.137 43.6337V43.6337Z" fill="#00682A"/>
<path d="M86.0564 59.7136L77.8661 60.596C77.4606 60.6397 77.0543 60.5204 76.7366 60.2643C76.419 60.0083 76.216 59.6365 76.1723 59.2307C76.1286 58.825 76.2479 58.4185 76.5038 58.1006C76.7597 57.7828 77.1313 57.5797 77.5368 57.536L85.7271 56.6537C85.9281 56.6318 86.1314 56.6497 86.3254 56.7065C86.5194 56.7632 86.7004 56.8577 86.8579 56.9845C87.0154 57.1112 87.1464 57.2678 87.2433 57.4453C87.3403 57.6228 87.4014 57.8176 87.423 58.0187C87.4447 58.2198 87.4265 58.4232 87.3695 58.6172C87.3125 58.8113 87.2178 58.9922 87.0909 59.1496C86.964 59.307 86.8073 59.4379 86.6298 59.5346C86.4523 59.6314 86.2574 59.6922 86.0564 59.7136Z" fill="#00682A"/>
<path d="M46.0328 35.109C47.5618 35.109 48.8013 33.8689 48.8013 32.3391C48.8013 30.8093 47.5618 29.5691 46.0328 29.5691C44.5038 29.5691 43.2643 30.8093 43.2643 32.3391C43.2643 33.8689 44.5038 35.109 46.0328 35.109Z" fill="#3F3D56"/>
<path d="M169.924 21.2593C171.453 21.2593 172.693 20.0191 172.693 18.4893C172.693 16.9595 171.453 15.7194 169.924 15.7194C168.395 15.7194 167.156 16.9595 167.156 18.4893C167.156 20.0191 168.395 21.2593 169.924 21.2593Z" fill="#3F3D56"/>
<path d="M132.495 78.1253C132.24 77.9017 132.039 77.6243 131.905 77.3131C131.771 77.0019 131.708 76.6648 131.721 76.3263C131.86 72.303 131.198 68.2922 129.773 64.5274C129.652 64.211 129.603 63.8715 129.63 63.5338C129.656 63.1961 129.758 62.8685 129.927 62.575C130.089 62.2929 130.311 62.0497 130.577 61.8625C130.843 61.6753 131.146 61.5486 131.467 61.4913C134.684 59.5485 137.983 59.003 141.273 59.8705C141.804 59.7924 142.345 59.906 142.799 60.191C143.254 60.476 143.591 60.9137 143.752 61.4255C145.084 65.7521 145.825 70.2392 145.955 74.7646C145.967 75.3075 145.784 75.8366 145.437 76.2549C145.091 76.6731 144.606 76.9523 144.07 77.0412L134.334 78.6505C134.008 78.7052 133.674 78.6864 133.355 78.5955C133.037 78.5047 132.743 78.344 132.495 78.1253V78.1253Z" fill="#00682A"/>
<path d="M133.359 66.4029L141.554 65.0484C141.621 65.0374 141.686 65.0133 141.744 64.9773C141.802 64.9413 141.852 64.8942 141.892 64.8388C141.932 64.7833 141.96 64.7205 141.976 64.654C141.992 64.5875 141.994 64.5185 141.983 64.4511C141.972 64.3837 141.947 64.3192 141.911 64.2612C141.875 64.2033 141.828 64.153 141.772 64.1133C141.717 64.0735 141.654 64.0452 141.587 64.0298C141.521 64.0144 141.452 64.0123 141.385 64.0236L133.19 65.3781C133.055 65.4008 132.934 65.4764 132.854 65.5883C132.774 65.7002 132.741 65.8393 132.764 65.975C132.786 66.1107 132.862 66.2319 132.973 66.3122C133.085 66.3924 133.224 66.425 133.359 66.4029Z" fill="white"/>
<path d="M134.036 70.5023L142.231 69.1478C142.367 69.1253 142.488 69.0498 142.568 68.9378C142.648 68.8259 142.681 68.6866 142.658 68.5507C142.636 68.4148 142.561 68.2934 142.449 68.2132C142.337 68.1329 142.197 68.1005 142.062 68.1229L133.867 69.4774C133.8 69.4884 133.735 69.5126 133.677 69.5486C133.619 69.5845 133.569 69.6316 133.529 69.6871C133.489 69.7426 133.461 69.8054 133.445 69.8719C133.43 69.9384 133.427 70.0073 133.438 70.0747C133.45 70.1421 133.474 70.2066 133.51 70.2646C133.546 70.3226 133.593 70.3729 133.649 70.4126C133.704 70.4523 133.767 70.4807 133.834 70.4961C133.9 70.5115 133.969 70.5136 134.036 70.5023V70.5023Z" fill="white"/>
<path d="M134.713 74.6016L142.908 73.2471C143.044 73.2247 143.165 73.1492 143.245 73.0372C143.325 72.9252 143.358 72.786 143.335 72.6501C143.313 72.5141 143.237 72.3927 143.126 72.3125C143.014 72.2323 142.874 72.1998 142.739 72.2223L134.544 73.5768C134.477 73.5879 134.412 73.6122 134.355 73.6482C134.297 73.6842 134.246 73.7313 134.207 73.7867C134.167 73.8422 134.139 73.9049 134.123 73.9713C134.108 74.0378 134.105 74.1066 134.117 74.1739C134.128 74.2412 134.152 74.3056 134.188 74.3635C134.224 74.4214 134.271 74.4717 134.326 74.5114C134.382 74.5511 134.444 74.5796 134.511 74.595C134.577 74.6105 134.646 74.6128 134.713 74.6016Z" fill="white"/>
</g>
<defs>
<clipPath id="clip0_7_487">
<rect width="253" height="218" fill="white"/>
</clipPath>
</defs>
</svg>
